<svg xmlns="http://www.w3.org/2000/svg" width="121" height="116.679" viewBox="0 0 121 116.679">
  <g id="money-bag" transform="translate(-32 -40)">
    <g id="Group_101" data-name="Group 101" transform="translate(32 74.571)">
      <path id="Path_208" data-name="Path 208" d="M92.5,168H66.571A34.572,34.572,0,0,0,32,202.571v38.893a8.643,8.643,0,0,0,8.643,8.643h77.786a8.643,8.643,0,0,0,8.643-8.643V202.571A34.572,34.572,0,0,0,92.5,168Z" transform="translate(-32 -168)" fill="#463c4b"/>
    </g>
    <g id="Group_102" data-name="Group 102" transform="translate(79.536 74.571)">
      <path id="Path_209" data-name="Path 209" d="M220.964,168H208a8.643,8.643,0,0,1,8.643,8.643v64.821A8.643,8.643,0,0,1,208,250.107h38.893a8.643,8.643,0,0,0,8.643-8.643V202.571A34.572,34.572,0,0,0,220.964,168Z" transform="translate(-208 -168)" fill="#32283c"/>
    </g>
    <g id="Group_103" data-name="Group 103" transform="translate(62.25 65.929)">
      <path id="Path_210" data-name="Path 210" d="M174.25,144.643H148.321a4.321,4.321,0,1,1,0-8.643H174.25a4.321,4.321,0,1,1,0,8.643Z" transform="translate(-144 -136)" fill="#ff4646"/>
    </g>
    <g id="Group_104" data-name="Group 104" transform="translate(53.607 40)">
      <path id="Path_211" data-name="Path 211" d="M150.893,65.929H124.964A12.964,12.964,0,0,1,112,52.964V44.321A4.321,4.321,0,0,1,116.321,40h2.532a4.323,4.323,0,0,1,3.056,1.266l4.321,4.321a4.321,4.321,0,0,0,6.111,0l2.532-2.532a4.321,4.321,0,0,1,6.111,0l2.532,2.532a4.321,4.321,0,0,0,6.111,0l4.321-4.321A4.321,4.321,0,0,1,157,40h2.531a4.321,4.321,0,0,1,4.321,4.321v8.643A12.964,12.964,0,0,1,150.893,65.929Z" transform="translate(-112 -40)" fill="#463c4b"/>
    </g>
    <g id="Group_105" data-name="Group 105" transform="translate(70.893 40)">
      <path id="Path_212" data-name="Path 212" d="M206.25,40h-2.532a4.322,4.322,0,0,0-3.056,1.266l-4.321,4.321a4.322,4.322,0,0,1-6.112,0L187.7,43.056a4.308,4.308,0,0,0-3.056-1.266v15.5A8.643,8.643,0,0,1,176,65.929h21.607a12.964,12.964,0,0,0,12.964-12.964V44.321A4.321,4.321,0,0,0,206.25,40Z" transform="translate(-176 -40)" fill="#32283c"/>
    </g>
    <g id="Group_106" data-name="Group 106" transform="translate(53.809 91.695)">
      <circle id="Ellipse_26" data-name="Ellipse 26" cx="25.848" cy="25.848" r="25.848" transform="translate(0 0)" fill="#32283c"/>
    </g>
    <path id="Path_213" data-name="Path 213" d="M187.446,265.286a2.161,2.161,0,0,0,2.161-2.161v-.415a8.237,8.237,0,0,0-8.227-8.227h-.415v-4.321a2.161,2.161,0,0,0-4.321,0v4.321h-.415a8.228,8.228,0,0,0-2,16.209l8.1,2.024a3.906,3.906,0,0,1-.947,7.7h-5.152a3.911,3.911,0,0,1-3.906-3.906v-.415a2.161,2.161,0,0,0-4.321,0v.415a8.237,8.237,0,0,0,8.227,8.227h.415v4.321a2.161,2.161,0,1,0,4.321,0v-4.321h.415a8.228,8.228,0,0,0,2-16.209l-8.1-2.024a3.906,3.906,0,0,1,.947-7.7h5.152a3.911,3.911,0,0,1,3.906,3.906v.415A2.161,2.161,0,0,0,187.446,265.286Z" transform="translate(-99.268 -151.821)" fill="#e6e6eb"/>
    <g id="Group_107" data-name="Group 107" transform="translate(101.143 148.036)">
      <path id="Path_214" data-name="Path 214" d="M333.375,440H290.161A2.161,2.161,0,0,0,288,442.161v4.321a2.161,2.161,0,0,0,2.161,2.161h43.214a2.161,2.161,0,0,0,2.161-2.161v-4.321A2.161,2.161,0,0,0,333.375,440Z" transform="translate(-288 -440)" fill="#f5732d"/>
    </g>
    <g id="Group_108" data-name="Group 108" transform="translate(101.143 113.464)">
      <path id="Path_215" data-name="Path 215" d="M333.375,312H290.161A2.161,2.161,0,0,0,288,314.161v4.321a2.161,2.161,0,0,0,2.161,2.161h43.214a2.161,2.161,0,0,0,2.161-2.161v-4.321A2.161,2.161,0,0,0,333.375,312Z" transform="translate(-288 -312)" fill="#f5732d"/>
    </g>
    <g id="Group_109" data-name="Group 109" transform="translate(96.821 130.75)">
      <path id="Path_216" data-name="Path 216" d="M317.375,376H274.161A2.161,2.161,0,0,0,272,378.161v4.321a2.161,2.161,0,0,0,2.161,2.161h43.214a2.161,2.161,0,0,0,2.161-2.161v-4.321A2.161,2.161,0,0,0,317.375,376Z" transform="translate(-272 -376)" fill="#f5732d"/>
    </g>
    <g id="Group_110" data-name="Group 110" transform="translate(105.464 139.393)">
      <path id="Path_217" data-name="Path 217" d="M349.375,408H306.161A2.161,2.161,0,0,0,304,410.161v4.321a2.161,2.161,0,0,0,2.161,2.161h43.214a2.161,2.161,0,0,0,2.161-2.161v-4.321A2.161,2.161,0,0,0,349.375,408Z" transform="translate(-304 -408)" fill="#faa037"/>
    </g>
    <g id="Group_111" data-name="Group 111" transform="translate(105.464 122.107)">
      <path id="Path_218" data-name="Path 218" d="M349.375,344H306.161A2.161,2.161,0,0,0,304,346.161v4.321a2.161,2.161,0,0,0,2.161,2.161h43.214a2.161,2.161,0,0,0,2.161-2.161v-4.321A2.161,2.161,0,0,0,349.375,344Z" transform="translate(-304 -344)" fill="#faa037"/>
    </g>
    <g id="Group_116" data-name="Group 116" transform="translate(131.393 87.536)">
      <g id="Group_112" data-name="Group 112" transform="translate(8.643)">
        <path id="Path_219" data-name="Path 219" d="M432,224.643h4.321v-6.482a2.161,2.161,0,1,0-4.321,0Z" transform="translate(-432 -216)" fill="#faa037"/>
      </g>
      <g id="Group_113" data-name="Group 113" transform="translate(8.643 12.964)">
        <path id="Path_220" data-name="Path 220" d="M434.161,272.643a2.161,2.161,0,0,0,2.161-2.161V264H432v6.482A2.161,2.161,0,0,0,434.161,272.643Z" transform="translate(-432 -264)" fill="#faa037"/>
      </g>
      <g id="Group_114" data-name="Group 114" transform="translate(0 8.643)">
        <path id="Path_221" data-name="Path 221" d="M408.643,252.321V248h-6.482a2.161,2.161,0,1,0,0,4.321Z" transform="translate(-400 -248)" fill="#faa037"/>
      </g>
      <g id="Group_115" data-name="Group 115" transform="translate(12.964 8.643)">
        <path id="Path_222" data-name="Path 222" d="M456.643,250.161A2.161,2.161,0,0,0,454.482,248H448v4.321h6.482A2.161,2.161,0,0,0,456.643,250.161Z" transform="translate(-448 -248)" fill="#faa037"/>
      </g>
    </g>
    <g id="Group_121" data-name="Group 121" transform="translate(120.589 57.286)">
      <g id="Group_117" data-name="Group 117" transform="translate(8.643 0)">
        <path id="Path_223" data-name="Path 223" d="M392,112.643h4.321v-6.482a2.161,2.161,0,1,0-4.321,0Z" transform="translate(-392 -104)" fill="#faa037"/>
      </g>
      <g id="Group_118" data-name="Group 118" transform="translate(8.643 12.964)">
        <path id="Path_224" data-name="Path 224" d="M394.161,160.643a2.161,2.161,0,0,0,2.161-2.161V152H392v6.482A2.161,2.161,0,0,0,394.161,160.643Z" transform="translate(-392 -152)" fill="#faa037"/>
      </g>
      <g id="Group_119" data-name="Group 119" transform="translate(0 8.643)">
        <path id="Path_225" data-name="Path 225" d="M368.643,140.321V136h-6.482a2.161,2.161,0,0,0,0,4.321Z" transform="translate(-360 -136)" fill="#faa037"/>
      </g>
      <g id="Group_120" data-name="Group 120" transform="translate(12.964 8.643)">
        <path id="Path_226" data-name="Path 226" d="M416.643,138.161A2.161,2.161,0,0,0,414.482,136H408v4.321h6.482A2.161,2.161,0,0,0,416.643,138.161Z" transform="translate(-408 -136)" fill="#faa037"/>
      </g>
    </g>
    <g id="Group_126" data-name="Group 126" transform="translate(101.143 83.214)">
      <g id="Group_122" data-name="Group 122" transform="translate(8.643)">
        <path id="Path_227" data-name="Path 227" d="M320,208.643h4.321v-6.482a2.161,2.161,0,1,0-4.321,0Z" transform="translate(-320 -200)" fill="#faa037"/>
      </g>
      <g id="Group_123" data-name="Group 123" transform="translate(8.643 12.964)">
        <path id="Path_228" data-name="Path 228" d="M322.161,256.643a2.161,2.161,0,0,0,2.161-2.161V248H320v6.482A2.161,2.161,0,0,0,322.161,256.643Z" transform="translate(-320 -248)" fill="#faa037"/>
      </g>
      <g id="Group_124" data-name="Group 124" transform="translate(0 8.643)">
        <path id="Path_229" data-name="Path 229" d="M296.643,236.321V232h-6.482a2.161,2.161,0,0,0,0,4.321Z" transform="translate(-288 -232)" fill="#faa037"/>
      </g>
      <g id="Group_125" data-name="Group 125" transform="translate(12.964 8.643)">
        <path id="Path_230" data-name="Path 230" d="M344.643,234.161A2.161,2.161,0,0,0,342.482,232H336v4.321h6.482A2.161,2.161,0,0,0,344.643,234.161Z" transform="translate(-336 -232)" fill="#faa037"/>
      </g>
    </g>
  </g>
</svg>
