<svg xmlns="http://www.w3.org/2000/svg" width="41.391" height="25.872" viewBox="0 0 41.391 25.872">
  <g id="Group_69" data-name="Group 69" transform="translate(0 0)">
    <g id="behance" transform="translate(0 0)">
      <g id="Group_54" data-name="Group 54" transform="translate(0 0)">
        <g id="Group_53" data-name="Group 53">
          <path id="Path_148" data-name="Path 148" d="M17.029,107.673a6.208,6.208,0,0,0,1.953-1.433,5.568,5.568,0,0,0,1.182-3.718,6.362,6.362,0,0,0-1.172-3.852q-1.956-2.623-6.631-2.691H0v25.233H11.526a18.022,18.022,0,0,0,3.614-.339,7.109,7.109,0,0,0,2.89-1.268,7,7,0,0,0,1.811-1.984,7.29,7.29,0,0,0,1.141-4.023,6.62,6.62,0,0,0-1-3.7A5.75,5.75,0,0,0,17.029,107.673ZM5.1,100.362h5.568a9.815,9.815,0,0,1,3.024.393,2.263,2.263,0,0,1,1.374,2.334,2.376,2.376,0,0,1-1.04,2.215,5.218,5.218,0,0,1-2.706.626H5.1Zm8.8,16.027a6.1,6.1,0,0,1-2.592.445H5.1V110.1h6.3a6.571,6.571,0,0,1,2.561.424,2.706,2.706,0,0,1,1.627,2.709A3.172,3.172,0,0,1,13.9,116.389Z" transform="translate(0 -95.979)" fill="#989898"/>
          <rect id="Rectangle_38" data-name="Rectangle 38" width="10.962" height="3.141" transform="translate(26.451 1.177)" fill="#989898"/>
          <path id="Path_149" data-name="Path 149" d="M298.466,178.671a9,9,0,0,0-1.511-3.857,7.616,7.616,0,0,0-3.265-2.76,10.808,10.808,0,0,0-4.45-.874,9.21,9.21,0,0,0-6.763,2.587q-2.6,2.588-2.605,7.441,0,5.173,2.89,7.469a10.382,10.382,0,0,0,6.662,2.295,9.272,9.272,0,0,0,7.117-2.719,6.122,6.122,0,0,0,1.832-3.374h-5.05a4.072,4.072,0,0,1-1.019,1.283,4.227,4.227,0,0,1-2.742.854,5.069,5.069,0,0,1-2.729-.7,4.457,4.457,0,0,1-1.982-3.935h13.782A23.753,23.753,0,0,0,298.466,178.671Zm-13.492.484a5.058,5.058,0,0,1,1.319-2.887,3.977,3.977,0,0,1,2.952-1.068,4.392,4.392,0,0,1,2.936,1,4.081,4.081,0,0,1,1.317,2.952Z" transform="translate(-257.245 -165.099)" fill="#989898"/>
        </g>
      </g>
    </g>
  </g>
</svg>
