<svg id="Group_68" data-name="Group 68" xmlns="http://www.w3.org/2000/svg" width="34.501" height="34.501" viewBox="0 0 34.501 34.501">
  <path id="dribble" d="M17.25,0A17.25,17.25,0,1,0,34.5,17.25,17.287,17.287,0,0,0,17.25,0Zm11.7,7.514a15.157,15.157,0,0,1,3.525,9.494,21.611,21.611,0,0,0-8.75-.117q-1.192.217-2.379.55-.394-1.072-.838-2.126-.454-1.074-.956-2.115C23.19,11.81,27.132,9.742,28.951,7.514ZM17.25,2.022A15.171,15.171,0,0,1,27.54,6.034c-1.058,1.443-4.073,3.543-8.909,5.354a43.935,43.935,0,0,0-6.053-8.632A15.162,15.162,0,0,1,17.25,2.022ZM10.576,3.565a42.07,42.07,0,0,1,6.129,8.494A36.211,36.211,0,0,1,2.389,13.922,15.285,15.285,0,0,1,10.576,3.565ZM2.022,17.25c0-.447.021-.89.059-1.327a27.492,27.492,0,0,0,2.885.147,41.221,41.221,0,0,0,12.682-2.192,44.458,44.458,0,0,1,1.782,4.176,28.259,28.259,0,0,0-4.881,2.3c-3.788,2.255-6.56,5.157-7.709,8A15.189,15.189,0,0,1,2.022,17.25ZM17.25,32.479A15.143,15.143,0,0,1,8.5,29.707c.768-2.6,3.366-5.4,7.083-7.616a26.08,26.08,0,0,1,4.507-2.113,47.361,47.361,0,0,1,2.135,11.666A15.159,15.159,0,0,1,17.25,32.479ZM24.2,30.8A48.924,48.924,0,0,0,22.009,19.37a20.241,20.241,0,0,1,10.362-.307A15.266,15.266,0,0,1,24.2,30.8Z" transform="translate(0 0)" fill="#989898"/>
</svg>
