<svg xmlns="http://www.w3.org/2000/svg" width="158.933" height="119.142" viewBox="0 0 158.933 119.142">
  <g id="delivery-box" transform="translate(-16 -80)">
    <g id="Group_195" data-name="Group 195" transform="translate(16 80)">
      <path id="Path_289" data-name="Path 289" d="M21.349,199.142H149.725a5.382,5.382,0,0,0,5.349-5.416V85.416A5.382,5.382,0,0,0,149.725,80H21.349A5.382,5.382,0,0,0,16,85.416V193.726A5.382,5.382,0,0,0,21.349,199.142Z" transform="translate(-16 -80)" fill="#f0915a"/>
    </g>
    <g id="Group_196" data-name="Group 196" transform="translate(16 80)">
      <path id="Path_290" data-name="Path 290" d="M95.433,199.142H20.965A5.2,5.2,0,0,1,16,193.726V85.416A5.2,5.2,0,0,1,20.965,80H95.433a5.2,5.2,0,0,1,4.965,5.416V193.726A5.2,5.2,0,0,1,95.433,199.142Z" transform="translate(-16 -80)" fill="#fab991"/>
    </g>
    <g id="Group_197" data-name="Group 197" transform="translate(48.186 80)">
      <path id="Path_291" data-name="Path 291" d="M134.341,99.858H114.482A2.482,2.482,0,0,1,112,97.376V80h24.823V97.376A2.482,2.482,0,0,1,134.341,99.858Z" transform="translate(-112 -80)" fill="#e6e6eb"/>
    </g>
    <g id="Group_198" data-name="Group 198" transform="translate(125.287 119.713)">
      <path id="Path_292" data-name="Path 292" d="M384.031,207.491l-12.26-14.3A3.4,3.4,0,0,0,369.189,192H359.26a3.4,3.4,0,0,0-3.4,3.4v3.219H340.966A4.964,4.964,0,0,0,336,203.584v16.548a4.964,4.964,0,0,0,4.965,4.965h14.894v3.219a3.4,3.4,0,0,0,3.4,3.4h9.929a3.4,3.4,0,0,0,2.582-1.187l12.26-14.3a6.71,6.71,0,0,0,0-8.734Z" transform="translate(-336.001 -192)" fill="#cd3232"/>
    </g>
    <g id="Group_199" data-name="Group 199" transform="translate(125.287 119.713)">
      <path id="Path_293" data-name="Path 293" d="M374.1,207.491l-12.26-14.3a3.4,3.4,0,0,0-5.982,2.213v3.219H340.966A4.964,4.964,0,0,0,336,203.584v16.548a4.964,4.964,0,0,0,4.965,4.965h14.894v3.219a3.4,3.4,0,0,0,5.982,2.213l12.26-14.3a6.71,6.71,0,0,0,0-8.734Z" transform="translate(-336.001 -192)" fill="#ff4646"/>
    </g>
    <g id="Group_200" data-name="Group 200" transform="translate(74.839 174.319)">
      <path id="Path_294" data-name="Path 294" d="M209.376,366.894H194.482A2.482,2.482,0,0,1,192,364.411v-9.929A2.482,2.482,0,0,1,194.482,352h14.894a2.482,2.482,0,0,1,2.482,2.482v9.929A2.482,2.482,0,0,1,209.376,366.894Z" transform="translate(-192 -352)" fill="#f0915a"/>
    </g>
  </g>
</svg>
