<svg id="boost" xmlns="http://www.w3.org/2000/svg" width="54.929" height="54.929" viewBox="0 0 54.929 54.929">
  <path id="Path_104" data-name="Path 104" d="M91.207,444.081H46.781a.26.26,0,0,1-.2-.425c1.023-1.243,4.268-4.767,7.94-4.46,4.071.341,3.389,1.827,8.1,1.629s3.455-4,3.455-4h5.841s-1.254,3.808,3.456,4,4.026-1.287,8.1-1.629c3.673-.307,6.917,3.216,7.94,4.46A.26.26,0,0,1,91.207,444.081Z" transform="translate(-41.529 -389.956)" fill="#ffd15b"/>
  <g id="Group_43" data-name="Group 43" transform="translate(11.065 46.864)">
    <path id="Path_105" data-name="Path 105" d="M255.415,440.826a13.371,13.371,0,0,0,2.4-.078,2.923,2.923,0,0,1-2.634-3.926H251.96S250.706,440.628,255.415,440.826Z" transform="translate(-235.858 -436.821)" fill="#ffc344"/>
    <path id="Path_106" data-name="Path 106" d="M109.944,460.442a7.275,7.275,0,0,0,.821-.079c-2.239-.311-2.509-1.282-5.7-1.55a5.862,5.862,0,0,0-1.926.17C105.83,459.491,105.807,460.617,109.944,460.442Z" transform="translate(-103.138 -456.437)" fill="#ffc344"/>
    <path id="Path_107" data-name="Path 107" d="M380.155,458.813a12.648,12.648,0,0,0-1.293.17c3.574.9,6.349,4.714,6.349,4.714h2.683a.26.26,0,0,0,.2-.425C387.071,462.029,383.827,458.506,380.155,458.813Z" transform="translate(-349.281 -456.437)" fill="#ffc344"/>
  </g>
  <path id="Path_108" data-name="Path 108" d="M58.031,120.758H10.289A2.789,2.789,0,0,1,7.5,117.969V87.5H60.82v30.469A2.789,2.789,0,0,1,58.031,120.758Z" transform="translate(-6.695 -78.113)" fill="#eef5f6"/>
  <path id="Path_109" data-name="Path 109" d="M451.289,87.5v30.469a2.789,2.789,0,0,1-2.789,2.789h3.219a2.789,2.789,0,0,0,2.789-2.789V87.5Z" transform="translate(-400.383 -78.113)" fill="#deecf1"/>
  <path id="Path_110" data-name="Path 110" d="M60.82,16.083H7.5V10.289A2.789,2.789,0,0,1,10.289,7.5H58.031a2.789,2.789,0,0,1,2.789,2.789Z" transform="translate(-6.695 -6.695)" fill="#918291"/>
  <path id="Path_111" data-name="Path 111" d="M451.719,7.5H448.5a2.789,2.789,0,0,1,2.789,2.789v5.793h3.219V10.289A2.789,2.789,0,0,0,451.719,7.5Z" transform="translate(-400.383 -6.695)" fill="#7a6d79"/>
  <circle id="Ellipse_9" data-name="Ellipse 9" cx="1.717" cy="1.717" r="1.717" transform="translate(6.247 3.344)" fill="#fe646f"/>
  <circle id="Ellipse_10" data-name="Ellipse 10" cx="1.717" cy="1.717" r="1.717" transform="translate(12.541 3.344)" fill="#ffd15b"/>
  <circle id="Ellipse_11" data-name="Ellipse 11" cx="1.717" cy="1.717" r="1.717" transform="translate(18.835 3.344)" fill="#8379c1"/>
  <g id="Group_46" data-name="Group 46" transform="translate(16.13 13.383)">
    <g id="Group_44" data-name="Group 44" transform="translate(0 24.213)">
      <path id="Path_112" data-name="Path 112" d="M156.479,355.78l-5.525,2.349a.433.433,0,0,1-.6-.441l.2-2.052a3.661,3.661,0,0,1,1.2-2.366l3.174-2.841Z" transform="translate(-150.351 -350.429)" fill="#fe646f"/>
      <path id="Path_113" data-name="Path 113" d="M304.531,355.78l5.525,2.349a.433.433,0,0,0,.6-.441l-.2-2.052a3.661,3.661,0,0,0-1.2-2.366l-3.174-2.841Z" transform="translate(-287.99 -350.429)" fill="#fe646f"/>
    </g>
    <path id="Path_114" data-name="Path 114" d="M196.731,141.072c0,5.414-2.39,13.8-2.39,13.8H182.929s-2.389-8.388-2.389-13.8c0-8.909,7.136-15.8,8.008-16.308a.173.173,0,0,1,.174,0C189.594,125.27,196.731,132.163,196.731,141.072Z" transform="translate(-177.301 -124.741)" fill="#d6d6d6"/>
    <path id="Path_115" data-name="Path 115" d="M242.694,124.764a.173.173,0,0,0-.174,0,9.825,9.825,0,0,0-1.522,1.4c2.361,2.521,6.487,8.129,6.487,14.9,0,5.414-2.389,13.8-2.389,13.8h3.219s2.389-8.388,2.389-13.8C250.7,132.163,243.566,125.27,242.694,124.764Z" transform="translate(-231.273 -124.741)" fill="#77777a"/>
    <path id="Path_116" data-name="Path 116" d="M213.809,129.934h9.052a20.945,20.945,0,0,0-4.439-5.17.173.173,0,0,0-.174,0A20.945,20.945,0,0,0,213.809,129.934Z" transform="translate(-207.001 -124.741)" fill="#fe646f"/>
    <path id="Path_117" data-name="Path 117" d="M243.915,129.934h3.219a20.945,20.945,0,0,0-4.439-5.17.173.173,0,0,0-.174,0,9.812,9.812,0,0,0-1.522,1.4A26.765,26.765,0,0,1,243.915,129.934Z" transform="translate(-231.273 -124.741)" fill="#fd4755"/>
    <g id="Group_45" data-name="Group 45" transform="translate(5.628 30.133)">
      <path id="Path_118" data-name="Path 118" d="M212.808,409.383h-8.581a.7.7,0,0,1-.683-.546l-.732-3.225h11.412l-.732,3.225A.7.7,0,0,1,212.808,409.383Z" transform="translate(-202.811 -405.612)" fill="#fe646f"/>
      <path id="Path_119" data-name="Path 119" d="M272.064,405.611l-.856,3.771h2.659a.7.7,0,0,0,.683-.546l.732-3.225h-3.219Z" transform="translate(-263.87 -405.611)" fill="#fd4755"/>
    </g>
    <circle id="Ellipse_12" data-name="Ellipse 12" cx="3.326" cy="3.326" r="3.326" transform="translate(8.009 13.841)" fill="#fff"/>
  </g>
  <g id="Group_47" data-name="Group 47" transform="translate(0)">
    <path id="Path_120" data-name="Path 120" d="M51.335,0H45.678a.8.8,0,1,0,0,1.609h5.657A1.987,1.987,0,0,1,53.32,3.594V8.583H1.609V3.594A1.987,1.987,0,0,1,3.594,1.609H41.981a.8.8,0,0,0,0-1.609H3.594A3.6,3.6,0,0,0,0,3.594V39.856A3.6,3.6,0,0,0,3.594,43.45H15.463l-.131,1.325a1.246,1.246,0,0,0,1.229,1.361c.112.16,4.326-1.769,4.553-1.829l.593,2.611a1.5,1.5,0,0,0,1.468,1.172h.713c-.1,1.413-1.18,1.887-2.831,1.974a10.194,10.194,0,0,1-3-.219.8.8,0,0,0-.41,1.556,10.275,10.275,0,0,0,2.631.289c2.677.092,5.114-.854,5.219-3.6h3.937c.135,2.366,1.843,3.471,4.373,3.582a9.475,9.475,0,0,0,4.954-.811c3.971-1.845,6.972-.391,9.7,2.459h-42c1.693-1.8,4.525-3.929,7.626-3.127a.8.8,0,0,0,.291-1.583c-4.425-1.13-8.36,2.576-9.953,4.578a1.064,1.064,0,0,0,.822,1.741H49.678a1.065,1.065,0,0,0,.822-1.741c-1.267-1.539-4.644-5.083-8.629-4.75a10.409,10.409,0,0,0-3.749.946,7.937,7.937,0,0,1-4.248.681c-1.648-.087-2.73-.561-2.832-1.974h.713a1.5,1.5,0,0,0,1.468-1.172l.593-2.611c.239.064,4.43,1.985,4.553,1.829A1.246,1.246,0,0,0,39.6,44.775l-.131-1.325H51.335a3.6,3.6,0,0,0,3.594-3.594V3.594A3.6,3.6,0,0,0,51.335,0ZM16.995,44.31l.142-1.428a2.849,2.849,0,0,1,.937-1.846L19.9,39.4c.307,1.38.6,2.552.809,3.331Zm6.387-24.929h8.165c5.186,7.889,2.834,15.928,1.009,23.331H22.372C20.54,35.279,18.2,27.265,23.382,19.381Zm1.081-1.609a22.356,22.356,0,0,1,3-3.417,22.342,22.342,0,0,1,3,3.417Zm7.209,28.71H23.257l-.491-2.161h9.4Zm2.546-3.752c.205-.779.5-1.951.809-3.331l1.829,1.637a2.848,2.848,0,0,1,.937,1.846l.142,1.428Zm19.1-2.874a1.987,1.987,0,0,1-1.985,1.985H39.215a4.453,4.453,0,0,0-1.286-2l-2.518-2.254c1.756-7.88,1.1-13.655-2.854-19.614a20.724,20.724,0,0,0-4.6-5.259.982.982,0,0,0-.98,0c-3.732,2.9-8.5,10.074-8.409,17a43.2,43.2,0,0,0,.954,7.869L17,39.837a4.452,4.452,0,0,0-1.286,2H3.594a1.987,1.987,0,0,1-1.985-1.985V10.192H53.32Z" transform="translate(0)"/>
    <path id="Path_121" data-name="Path 121" d="M50.73,26.193a2.521,2.521,0,1,0,2.521-2.521A2.524,2.524,0,0,0,50.73,26.193Zm3.433,0a.912.912,0,1,1-.912-.912A.913.913,0,0,1,54.163,26.193Z" transform="translate(-45.287 -21.132)"/>
    <path id="Path_122" data-name="Path 122" d="M109.4,26.193a2.521,2.521,0,1,0,2.521-2.521A2.524,2.524,0,0,0,109.4,26.193Zm3.433,0a.912.912,0,1,1-.912-.912A.913.913,0,0,1,112.83,26.193Z" transform="translate(-97.66 -21.132)"/>
    <path id="Path_123" data-name="Path 123" d="M168.064,26.193a2.521,2.521,0,1,0,2.521-2.521A2.524,2.524,0,0,0,168.064,26.193Zm3.433,0a.912.912,0,1,1-.912-.912A.913.913,0,0,1,171.5,26.193Z" transform="translate(-150.033 -21.132)"/>
    <path id="Path_124" data-name="Path 124" d="M221.63,254.735a4.13,4.13,0,1,0-4.13-4.13A4.135,4.135,0,0,0,221.63,254.735Zm0-6.652a2.521,2.521,0,1,1-2.521,2.521A2.524,2.524,0,0,1,221.63,248.084Z" transform="translate(-194.166 -220.056)"/>
    <path id="Path_125" data-name="Path 125" d="M44.595,143.053H54.63a.8.8,0,1,0,0-1.609H44.595A.8.8,0,0,0,44.595,143.053Z" transform="translate(-39.098 -126.269)"/>
    <path id="Path_126" data-name="Path 126" d="M44.594,175.34h7.2a.8.8,0,0,0,0-1.609h-7.2A.8.8,0,0,0,44.594,175.34Z" transform="translate(-39.098 -155.092)"/>
    <path id="Path_127" data-name="Path 127" d="M44.535,242.109h4.522a.8.8,0,0,0,0-1.609H44.535a.8.8,0,1,0,0,1.609Z" transform="translate(-39.038 -214.698)"/>
    <path id="Path_128" data-name="Path 128" d="M406.075,185.8h5.15a.8.8,0,0,0,0-1.609h-5.15a.8.8,0,1,0,0,1.609Z" transform="translate(-361.791 -164.431)"/>
    <path id="Path_129" data-name="Path 129" d="M406.075,218.417h5.15a.8.8,0,0,0,0-1.609h-5.15a.8.8,0,1,0,0,1.609Z" transform="translate(-361.791 -193.548)"/>
    <path id="Path_130" data-name="Path 130" d="M406.075,251.032h5.15a.8.8,0,0,0,0-1.609h-5.15a.8.8,0,1,0,0,1.609Z" transform="translate(-361.791 -222.664)"/>
  </g>
</svg>
