<svg id="surface1" xmlns="http://www.w3.org/2000/svg" width="54.947" height="54.943" viewBox="0 0 54.947 54.943">
  <path id="Path_97" data-name="Path 97" d="M25.466,297.278,32.489,283.5,21.552,272.559,7.77,279.581l-.157,17.854Zm-3.635-9.213a3.429,3.429,0,1,1,0-4.849A3.429,3.429,0,0,1,21.831,288.065Zm0,0" transform="translate(-6.796 -243.308)" fill="#ffd061"/>
  <path id="Path_98" data-name="Path 98" d="M16.983,283.216a3.429,3.429,0,0,1,4.849,0l5.189-5.189-5.469-5.469L7.77,279.581l-.157,17.854,9.369-9.37A3.429,3.429,0,0,1,16.983,283.216Zm0,0" transform="translate(-6.796 -243.308)" fill="#ef8930"/>
  <path id="Path_99" data-name="Path 99" d="M145.612,249.245a2.385,2.385,0,0,0,0-3.373l-11.041-11.041A2.385,2.385,0,0,0,131.2,238.2l11.041,11.041A2.385,2.385,0,0,0,145.612,249.245Zm0,0" transform="translate(-116.495 -209.006)" fill="#243142"/>
  <path id="Path_100" data-name="Path 100" d="M181.863,34.1c.547-4.931,3.968-11.271,9.533-16.835,8.57-8.57,18.979-12.057,23.249-7.787s.782,14.678-7.788,23.248c-5.565,5.565-11.9,8.986-16.835,9.533" transform="translate(-162.346 -6.829)" fill="#e6e6e6"/>
  <path id="Path_101" data-name="Path 101" d="M195.908,21.771c-5.565,5.565-9.838,11.053-11.662,14.706L181.867,34.1c.546-4.931,3.967-11.271,9.532-16.836,8.57-8.57,18.98-12.057,23.25-7.787C212.869,7.7,204.478,13.2,195.908,21.771Zm0,0" transform="translate(-162.349 -6.831)" fill="#ccc"/>
  <path id="Path_102" data-name="Path 102" d="M179.691,283.32a2.386,2.386,0,0,0,0-3.373L172.747,273a2.385,2.385,0,0,0-3.373,3.373l6.944,6.944A2.385,2.385,0,0,0,179.691,283.32Zm0,0" transform="translate(-150.574 -243.081)" fill="#3e4b5c"/>
  <path id="Path_103" data-name="Path 103" d="M52.877,2.068c-2.3-2.3-6.149-2.693-10.85-1.118A36.466,36.466,0,0,0,28.472,9.855c-4.979,4.979-8.434,10.729-9.5,15.71l-.316-.316a3.2,3.2,0,0,0-5.123,3.709L.6,35.546a.817.817,0,0,0-.446.721L.086,44.29a.817.817,0,0,0,.81.824H.9a.817.817,0,0,0,.817-.81l.066-7.527L14.6,30.249l10.1,10.1L18.167,53.158l-15.36.134,7.435-7.435A4.246,4.246,0,1,0,9.087,44.7L1.651,52.137,1.7,46.919a.817.817,0,0,0-.81-.824H.88a.817.817,0,0,0-.817.81L0,54.12a.817.817,0,0,0,.817.825H.824l17.853-.157a.816.816,0,0,0,.721-.446l6.588-12.929A3.2,3.2,0,0,0,29.7,36.29l-.316-.316c4.982-1.068,10.731-4.524,15.71-9.5A39.84,39.84,0,0,0,52.6,16.261a.817.817,0,0,0-1.464-.727,38.189,38.189,0,0,1-7.2,9.782,39.554,39.554,0,0,1-8.476,6.512,22.17,22.17,0,0,1-7.487,2.737l-7.592-7.592a22.159,22.159,0,0,1,2.737-7.487,39.537,39.537,0,0,1,6.513-8.477A34.816,34.816,0,0,1,42.547,2.5c4.082-1.367,7.341-1.11,9.175.724C53.6,5.1,53.81,8.591,52.3,12.8a.817.817,0,0,0,1.539.55C55.6,8.452,55.253,4.443,52.877,2.068ZM10.764,40.487a2.612,2.612,0,1,1,0,3.693A2.593,2.593,0,0,1,10.764,40.487Zm17.776-.824a1.568,1.568,0,0,1-2.217,0L15.281,28.622A1.568,1.568,0,0,1,17.5,26.4L28.54,37.446a1.568,1.568,0,0,1,0,2.218Zm0,0" transform="translate(0 -0.002)"/>
</svg>
