<svg xmlns="http://www.w3.org/2000/svg" xmlns:xlink="http://www.w3.org/1999/xlink" width="115.225" height="79.113" viewBox="0 0 115.225 79.113">
  <defs>
    <linearGradient id="linear-gradient" x1="0.441" y1="0.821" x2="0" y2="1" gradientUnits="objectBoundingBox">
      <stop offset="0" stop-color="#a1051d"/>
      <stop offset="1" stop-color="#f5515f"/>
    </linearGradient>
    <linearGradient id="linear-gradient-2" x1="0.921" y1="0.322" x2="0.54" y2="0.604" gradientUnits="objectBoundingBox">
      <stop offset="0" stop-color="#f36265"/>
      <stop offset="1" stop-color="#961276"/>
    </linearGradient>
    <linearGradient id="linear-gradient-3" x2="1" y2="1" gradientUnits="objectBoundingBox">
      <stop offset="0" stop-color="#fad961"/>
      <stop offset="1" stop-color="#f76b1c"/>
    </linearGradient>
    <linearGradient id="linear-gradient-4" x1="-1.61" y1="-0.508" x2="-1.609" y2="-0.508" gradientUnits="objectBoundingBox">
      <stop offset="0" stop-color="#6d4783"/>
      <stop offset="1" stop-color="#c695e1"/>
    </linearGradient>
    <linearGradient id="linear-gradient-5" x1="0.537" y1="0.418" x2="1" y2="0.5" gradientUnits="objectBoundingBox">
      <stop offset="0" stop-color="#9a1575"/>
      <stop offset="1" stop-color="#ef5f66"/>
    </linearGradient>
    <linearGradient id="linear-gradient-6" x1="0.673" y1="0.062" x2="0.121" y2="1" gradientUnits="objectBoundingBox">
      <stop offset="0" stop-color="#851122"/>
      <stop offset="1" stop-color="#f5515f"/>
    </linearGradient>
    <linearGradient id="linear-gradient-7" x1="0.756" y1="0.101" x2="0" y2="0.882" gradientUnits="objectBoundingBox">
      <stop offset="0" stop-color="#f9d861"/>
      <stop offset="1" stop-color="#f76c1d"/>
    </linearGradient>
  </defs>
  <g id="Artboard51" transform="translate(0 0)">
    <path id="Path_141" data-name="Path 141" d="M653.7,1047.9l30.053,38.3v40.546H653.7Z" transform="translate(-653.701 -1047.63)" fill-rule="evenodd" fill="url(#linear-gradient)"/>
    <path id="Path_142" data-name="Path 142" d="M704.5,1068.1v38.321l-23.33-24.712-30.053-38.3h30.053Z" transform="translate(-651.122 -1043.409)" fill-rule="evenodd" fill="url(#linear-gradient-2)"/>
    <path id="Path_143" data-name="Path 143" d="M653.7,1089.018c6.19,19.82,15.465,32.979,30.053,34.861V1086.2c-2.119-21.615-14.626-31.621-30.053-38.3Z" transform="translate(-653.701 -1047.899)" fill-rule="evenodd" fill="url(#linear-gradient-3)"/>
    <path id="Path_144" data-name="Path 144" d="M2180.422,1132.893h-11.746V1054.05h11.746a39.422,39.422,0,1,1,0,78.843" transform="translate(-2104.619 -1053.816)" fill-rule="evenodd" fill="url(#linear-gradient-4)"/>
    <path id="Path_145" data-name="Path 145" d="M2180.272,1213.3h-11.746s3.041-33.622,7.01-54.969c1.158-6.231,15.8-22.527,20.718-20.317a39.317,39.317,0,0,1-15.982,75.286" transform="translate(-2104.474 -1134.39)" fill-rule="evenodd" fill="url(#linear-gradient-5)"/>
    <path id="Path_146" data-name="Path 146" d="M2192.755,1974.033c8.994,6.8,12.941,26.257,2.221,40.908-9.315,3.394-12.932,2.835-26.445,2.832l-.006-30.971C2176.442,1980.1,2184.279,1972.691,2192.755,1974.033Z" transform="translate(-2104.472 -1938.697)" fill-rule="evenodd" fill="url(#linear-gradient-6)"/>
    <path id="Path_147" data-name="Path 147" d="M2168.52,1114.314l0-66.177c11.94-.454,30.76-2.054,44.5,17.292-4.262,19.288-42.3,15.782-44.5,48.884Z" transform="translate(-2104.468 -1047.903)" fill-rule="evenodd" fill="url(#linear-gradient-7)"/>
  </g>
</svg>
