<svg xmlns="http://www.w3.org/2000/svg" width="121" height="125.173" viewBox="0 0 121 125.173">
  <g id="quality-work" transform="translate(-24 -15.999)">
    <g id="Group_127" data-name="Group 127" transform="translate(36.517 15.999)">
      <path id="Path_231" data-name="Path 231" d="M101.207,16A29.207,29.207,0,0,0,72,45.207V95.276h29.207V86.931H117.9a12.517,12.517,0,0,0,12.517-12.517V45.207A29.207,29.207,0,0,0,101.207,16Z" transform="translate(-72 -16)" fill="#fbb993"/>
    </g>
    <g id="Group_128" data-name="Group 128" transform="translate(24 95.275)">
      <path id="Path_232" data-name="Path 232" d="M82.414,320h-45.9A12.517,12.517,0,0,0,24,332.517V365.9H94.931V332.517A12.517,12.517,0,0,0,82.414,320Z" transform="translate(-24 -320)" fill="#cd3232"/>
    </g>
    <g id="Group_129" data-name="Group 129" transform="translate(24 95.275)">
      <path id="Path_233" data-name="Path 233" d="M36.517,320A12.517,12.517,0,0,0,24,332.517V365.9H49.035V332.517A12.517,12.517,0,0,0,36.517,320Z" transform="translate(-24 -320)" fill="#ff4646"/>
    </g>
    <g id="Group_130" data-name="Group 130" transform="translate(36.517 86.93)">
      <path id="Path_234" data-name="Path 234" d="M101.207,288H80.345A8.345,8.345,0,0,0,72,296.345h29.207Z" transform="translate(-72 -288)" fill="#f1905b"/>
    </g>
    <g id="Group_131" data-name="Group 131" transform="translate(32.345 15.999)">
      <path id="Path_235" data-name="Path 235" d="M108.155,16H85.207A29.207,29.207,0,0,0,56,45.207V74.414a8.345,8.345,0,0,0,8.345,8.345H72.69a8.345,8.345,0,0,0,8.345-8.345V63.983a8.345,8.345,0,0,0,8.345-8.345V53.552a8.345,8.345,0,0,1,8.345-8.345h10.431a14.6,14.6,0,1,0,0-29.207Z" transform="translate(-56 -16)" fill="#32283c"/>
    </g>
    <g id="Group_132" data-name="Group 132" transform="translate(46.948 53.551)">
      <path id="Path_236" data-name="Path 236" d="M122.431,160v20.862a10.431,10.431,0,0,1,0-20.862Z" transform="translate(-112 -160)" fill="#f1905b"/>
    </g>
    <g id="Group_133" data-name="Group 133" transform="translate(72.678 50.422)">
      <circle id="Ellipse_27" data-name="Ellipse 27" cx="3.129" cy="3.129" r="3.129" transform="translate(0 0)" fill="#32283c"/>
    </g>
    <g id="Group_134" data-name="Group 134" transform="translate(83.109 50.422)">
      <circle id="Ellipse_28" data-name="Ellipse 28" cx="3.129" cy="3.129" r="3.129" transform="translate(0 0)" fill="#32283c"/>
    </g>
    <g id="Group_135" data-name="Group 135" transform="translate(81.023 57.028)">
      <path id="Path_237" data-name="Path 237" d="M246.839,186.546a4.172,4.172,0,0,1-4.172-4.172v-9.04a8.345,8.345,0,0,1,8.345,8.345v.7A4.172,4.172,0,0,1,246.839,186.546Z" transform="translate(-242.667 -173.333)" fill="#f1905b"/>
    </g>
    <g id="Group_136" data-name="Group 136" transform="translate(53.207 95.275)">
      <path id="Path_238" data-name="Path 238" d="M136,320a12.517,12.517,0,0,1,12.517,12.517V334.6a6.259,6.259,0,1,0,12.517,0v-2.086A12.517,12.517,0,0,0,148.517,320Z" transform="translate(-136 -320)" fill="#f1905b"/>
    </g>
    <g id="Group_137" data-name="Group 137" transform="translate(24 132.827)">
      <path id="Path_239" data-name="Path 239" d="M24,464H49.035v8.345H24Z" transform="translate(-24 -464)" fill="#fbb993"/>
    </g>
    <g id="Group_138" data-name="Group 138" transform="translate(111.621 111.965)">
      <path id="Path_240" data-name="Path 240" d="M392.157,385.222a4.172,4.172,0,0,0-5.9,0l-10.073,10.073a4.146,4.146,0,0,1-2.95,1.222H362.086A2.086,2.086,0,0,0,360,398.6v14.6h8.345v-4.172a4.172,4.172,0,0,1,4.172-4.172h.716a12.436,12.436,0,0,0,8.851-3.666l10.073-10.073A4.172,4.172,0,0,0,392.157,385.222Z" transform="translate(-360 -384)" fill="#f1905b"/>
    </g>
    <g id="Group_139" data-name="Group 139" transform="translate(103.276 114.051)">
      <path id="Path_241" data-name="Path 241" d="M345.733,392h-9.388A8.345,8.345,0,0,0,328,400.345v18.776h8.345v-14.6a2.086,2.086,0,0,1,2.086-2.086h7.3a5.216,5.216,0,0,0,0-10.431Z" transform="translate(-328 -392)" fill="#fbb993"/>
    </g>
    <g id="Group_145" data-name="Group 145" transform="translate(111.62 15.999)">
      <g id="Group_140" data-name="Group 140" transform="translate(0 0)">
        <path id="Path_242" data-name="Path 242" d="M380.095,21.419l-4.671-.679-2.089-4.232a.9.9,0,0,0-.819-.509h-4.155a.9.9,0,0,0-.82.509l-2.089,4.232-4.671.679a.914.914,0,0,0-.506,1.558l3.379,3.294-.8,4.651a.914.914,0,0,0,.9,1.068v0h4.156v0a.906.906,0,0,0,.425-.105l2.1-1.1,2.1,1.1a.908.908,0,0,0,.425.105v0h4.156v0a.914.914,0,0,0,.9-1.068l-.8-4.651,3.38-3.294a.914.914,0,0,0-.506-1.558Z" transform="translate(-359.999 -15.999)" fill="#cd3232"/>
        <path id="Path_243" data-name="Path 243" d="M369.181,16.509l2.089,4.232,4.671.679a.914.914,0,0,1,.506,1.558l-3.38,3.294.8,4.651a.914.914,0,0,1-1.326.963l-4.177-2.2-4.177,2.2a.914.914,0,0,1-1.326-.963l.8-4.651-3.38-3.294a.914.914,0,0,1,.506-1.558l4.671-.679,2.089-4.232a.913.913,0,0,1,1.638,0Z" transform="translate(-360 -16)" fill="#ff4646"/>
      </g>
      <g id="Group_141" data-name="Group 141" transform="translate(0 19.037)">
        <path id="Path_244" data-name="Path 244" d="M380.095,94.419l-4.671-.679-2.089-4.232a.9.9,0,0,0-.819-.509h-4.155a.9.9,0,0,0-.82.509l-2.089,4.232-4.671.679a.914.914,0,0,0-.506,1.558l3.379,3.294-.8,4.651a.914.914,0,0,0,.9,1.068v0h4.156v0a.906.906,0,0,0,.425-.105l2.1-1.1,2.1,1.1a.908.908,0,0,0,.425.105v0h4.156v0a.914.914,0,0,0,.9-1.068l-.8-4.651,3.38-3.294a.914.914,0,0,0-.506-1.558Z" transform="translate(-359.999 -88.999)" fill="#cd3232"/>
        <path id="Path_245" data-name="Path 245" d="M369.181,89.509l2.089,4.232,4.671.679a.914.914,0,0,1,.506,1.558l-3.38,3.294.8,4.651a.914.914,0,0,1-1.326.963l-4.177-2.2-4.177,2.2a.914.914,0,0,1-1.326-.963l.8-4.651-3.38-3.294a.914.914,0,0,1,.506-1.558l4.671-.679,2.089-4.232A.913.913,0,0,1,369.181,89.509Z" transform="translate(-360 -89)" fill="#ff4646"/>
      </g>
      <g id="Group_142" data-name="Group 142" transform="translate(0 38.073)">
        <path id="Path_246" data-name="Path 246" d="M380.095,167.419l-4.671-.679-2.089-4.232a.9.9,0,0,0-.819-.509h-4.155a.9.9,0,0,0-.82.509l-2.089,4.232-4.671.679a.914.914,0,0,0-.506,1.558l3.379,3.294-.8,4.651a.914.914,0,0,0,.9,1.068v0h4.156v0a.906.906,0,0,0,.425-.105l2.1-1.1,2.1,1.1a.908.908,0,0,0,.425.105v0h4.156v0a.914.914,0,0,0,.9-1.068l-.8-4.651,3.38-3.294a.914.914,0,0,0-.506-1.558Z" transform="translate(-359.999 -161.999)" fill="#cd3232"/>
        <path id="Path_247" data-name="Path 247" d="M369.181,162.509l2.089,4.232,4.671.679a.914.914,0,0,1,.506,1.558l-3.38,3.294.8,4.651a.914.914,0,0,1-1.326.963l-4.177-2.2-4.177,2.2a.914.914,0,0,1-1.326-.963l.8-4.651-3.38-3.294a.914.914,0,0,1,.506-1.558l4.671-.679,2.089-4.232A.913.913,0,0,1,369.181,162.509Z" transform="translate(-360 -162)" fill="#ff4646"/>
      </g>
      <g id="Group_143" data-name="Group 143" transform="translate(0 57.11)">
        <path id="Path_248" data-name="Path 248" d="M380.095,240.419l-4.671-.679-2.089-4.232a.9.9,0,0,0-.819-.509h-4.155a.9.9,0,0,0-.82.509l-2.089,4.232-4.671.679a.914.914,0,0,0-.506,1.558l3.379,3.294-.8,4.651a.914.914,0,0,0,.9,1.068v0h4.156v0a.906.906,0,0,0,.425-.105l2.1-1.1,2.1,1.1a.908.908,0,0,0,.425.105v0h4.156v0a.914.914,0,0,0,.9-1.068l-.8-4.651,3.38-3.294a.914.914,0,0,0-.506-1.558Z" transform="translate(-359.999 -234.999)" fill="#cd3232"/>
        <path id="Path_249" data-name="Path 249" d="M369.181,235.509l2.089,4.232,4.671.679a.914.914,0,0,1,.506,1.558l-3.38,3.294.8,4.651a.914.914,0,0,1-1.326.963l-4.177-2.2-4.177,2.2a.914.914,0,0,1-1.326-.963l.8-4.651-3.38-3.294a.914.914,0,0,1,.506-1.558l4.671-.679,2.089-4.232A.913.913,0,0,1,369.181,235.509Z" transform="translate(-360 -235)" fill="#ff4646"/>
      </g>
      <g id="Group_144" data-name="Group 144" transform="translate(0 76.147)">
        <path id="Path_250" data-name="Path 250" d="M380.095,313.419l-4.671-.679-2.089-4.232a.9.9,0,0,0-.819-.509h-4.155a.9.9,0,0,0-.82.509l-2.089,4.232-4.671.679a.914.914,0,0,0-.506,1.558l3.379,3.294-.8,4.651a.914.914,0,0,0,.9,1.068v0h4.156v0a.906.906,0,0,0,.425-.105l2.1-1.1,2.1,1.1a.908.908,0,0,0,.425.105v0h4.156v0a.914.914,0,0,0,.9-1.068l-.8-4.651,3.38-3.294a.914.914,0,0,0-.506-1.558Z" transform="translate(-359.999 -307.999)" fill="#cd3232"/>
        <path id="Path_251" data-name="Path 251" d="M369.181,308.509l2.089,4.232,4.671.679a.914.914,0,0,1,.506,1.558l-3.38,3.294.8,4.651a.914.914,0,0,1-1.326.963l-4.177-2.2-4.177,2.2a.914.914,0,0,1-1.326-.963l.8-4.651-3.38-3.294a.914.914,0,0,1,.506-1.558l4.671-.679,2.089-4.232A.913.913,0,0,1,369.181,308.509Z" transform="translate(-360 -308)" fill="#ff4646"/>
      </g>
    </g>
  </g>
</svg>
