<svg id="OBJECTS" xmlns="http://www.w3.org/2000/svg" xmlns:xlink="http://www.w3.org/1999/xlink" width="236.97" height="277.237" viewBox="0 0 236.97 277.237">
  <defs>
    <clipPath id="clip-path">
      <path id="Path_182" data-name="Path 182" d="M30.2,186.329c-1.221.809-20.734,7.735-22.792,9.054C4.722,197.044.833,210.455.01,215.394s13.454,7.635,19.542,1.235l8.274-11.95s18.747-2.7,22.707-3.449c5.152-.993,2.711-19.4,2.711-19.4S31.4,185.463,30.2,186.329Z" transform="translate(0.024 -181.83)" fill="none"/>
    </clipPath>
    <clipPath id="clip-path-2">
      <path id="Path_187" data-name="Path 187" d="M152.681,186.316c1.206.809,20.72,7.735,22.778,9.054,2.682,1.7,6.571,15.143,7.366,20.053s-13.454,7.635-19.542,1.235l-8.274-11.95s-18.733-2.7-22.707-3.449c-5.152-.993-2.711-19.4-2.711-19.4S151.46,185.451,152.681,186.316Z" transform="translate(-129.013 -181.86)" fill="none"/>
    </clipPath>
    <clipPath id="clip-path-3">
      <path id="Path_190" data-name="Path 190" d="M62.629,44.807a58.257,58.257,0,0,0,.454,17.754s-8.771-4.47-8.359,6.94c.3,8.373,8.827,13.567,11.921,9.154,0,0,3.747,12.957,9.608,14.873l.937,8.387s3.009,13.4,16.7,16.094c0,0,12.56-3.406,15.611-18.634l.085-11.453a29.548,29.548,0,0,0,7.976-14.078s3.832,4.187,8.657-7.422c4.5-10.828-4.7-15.7-8.416-7.593a39.439,39.439,0,0,0-3.08-24.963C108.965,22.227,66.29,22.426,62.629,44.807Z" transform="translate(-54.71 -26.231)" fill="none"/>
    </clipPath>
  </defs>
  <rect id="Rectangle_48" data-name="Rectangle 48" width="205.129" height="17.782" transform="translate(15.787 246.054)" fill="#111b37"/>
  <path id="Path_175" data-name="Path 175" d="M64.906,117.471,43.178,218.56H19.62L34.252,113.54Z" transform="translate(8.259 28.19)" fill="#fdb1a6" fill-rule="evenodd"/>
  <path id="Path_176" data-name="Path 176" d="M114.14,111.46l21.288,113.194h21.188L142.325,99Z" transform="translate(47.88 22.095)" fill="#fdb1a6" fill-rule="evenodd"/>
  <path id="Path_177" data-name="Path 177" d="M102.667,78.313s-42.434-16.321-55.66-3.122S26.67,134.144,26.67,134.144l35.3,7.834-4.513,100H155.12l-.255-103.984L184.668,119S173.314,84.473,164.8,74.609,142.589,56.16,102.667,78.313Z" transform="translate(11.214 7.586)" fill="#111b37" fill-rule="evenodd"/>
  <path id="Path_178" data-name="Path 178" d="M30.2,186.329c-1.221.809-20.734,7.735-22.792,9.054C4.722,197.044.833,210.455.01,215.394s13.454,7.635,19.542,1.235l8.274-11.95s18.747-2.7,22.707-3.449c5.152-.993,2.711-19.4,2.711-19.4S31.4,185.463,30.2,186.329Z" transform="translate(0.024 56.816)" fill="#fdb1a6" fill-rule="evenodd"/>
  <g id="Group_63" data-name="Group 63" transform="translate(0 238.646)" clip-path="url(#clip-path)">
    <path id="Path_179" data-name="Path 179" d="M8.06,218.68h0c0-.114.1-.213.142-.312.44-.894.866-2.015,1.419-3.236,1.859-4.428,4.258-10.5,6.032-14.6a16.42,16.42,0,0,1,2.654-4.57,14.63,14.63,0,0,1,2.838-1.419c2.413-.979,5.577-1.987,6.7-2.384A.187.187,0,1,1,28,192.5c-.922.468-3.293,1.646-5.393,2.838a19.2,19.2,0,0,0-3.222,2.029,5.534,5.534,0,0,0-.752,1.263c-.468.922-1.05,2.214-1.7,3.69-1.646,3.761-3.718,8.756-5.677,12.659-.27.553-.525,1.107-.809,1.6a24.936,24.936,0,0,1-1.419,2.285c-.1.128-.128.341-.27.369H8.67s0-.085-.227-.156a.11.11,0,1,1-.156-.156.8.8,0,0,0-.227-.241Z" transform="translate(3.413 -177.509)" fill="#111b37" fill-rule="evenodd"/>
    <path id="Path_180" data-name="Path 180" d="M4.363,219.466a4.029,4.029,0,0,0,.426-.525c.653-1.192,1.249-3.051,2.171-5.067,1.178-2.6,2.555-5.606,3.9-8.387,2.072-4.258,3.988-8.1,4.57-9.253a6.571,6.571,0,0,1,2.015-1.689c.894-.6,1.958-1.206,2.994-1.76l1.547-.823c.582-.3,1.093-.6,1.561-.795a.326.326,0,0,0,.227-.4.341.341,0,0,0-.412-.227,14.791,14.791,0,0,0-2.044.483,23.489,23.489,0,0,0-2.838,1.206,11.424,11.424,0,0,0-4.357,3.335c-.894,1.76-5.152,9.721-7.82,16.321a41.157,41.157,0,0,0-2.186,6.7,1.419,1.419,0,0,0,0,.241,2.029,2.029,0,0,0,.142.6.1.1,0,0,0,0,.114.085.085,0,0,0,.1-.071Z" transform="translate(1.76 -178.182)" fill="#111b37" fill-rule="evenodd"/>
    <path id="Path_181" data-name="Path 181" d="M1.418,219.955a3.763,3.763,0,0,0,.355-.426,3.689,3.689,0,0,0,.213-.667c.355-1.164.823-2.739,1.419-4.513.71-1.987,1.618-4.258,2.512-6.514s1.7-4.456,2.526-6.5a58.072,58.072,0,0,1,3.42-7.664,2.994,2.994,0,0,1,1.036-.781,63.185,63.185,0,0,0,5.776-2.838.213.213,0,1,0-.213-.355c-1.916.951-4.456,1.419-6.088,2.1a4.073,4.073,0,0,0-1.547,1.079,61.236,61.236,0,0,0-4.57,9.409c-.866,2.058-1.731,4.258-2.484,6.429a61.026,61.026,0,0,0-2.838,9.934,2.129,2.129,0,0,0,0,.582,2.4,2.4,0,0,0,.241.639.114.114,0,0,0,.1.1.1.1,0,0,0,.142-.014Z" transform="translate(0.418 -178.558)" fill="#111b37" fill-rule="evenodd"/>
  </g>
  <path id="Path_183" data-name="Path 183" d="M152.681,186.316c1.206.809,20.72,7.735,22.778,9.054,2.682,1.7,6.571,15.143,7.366,20.053s-13.454,7.635-19.542,1.235l-8.274-11.95s-18.733-2.7-22.707-3.449c-5.152-.993-2.711-19.4-2.711-19.4S151.46,185.451,152.681,186.316Z" transform="translate(54.114 56.829)" fill="#fdb1a6" fill-rule="evenodd"/>
  <g id="Group_64" data-name="Group 64" transform="translate(183.127 238.689)" clip-path="url(#clip-path-2)">
    <path id="Path_184" data-name="Path 184" d="M164.135,219.132h0c-.142,0-.185-.241-.27-.369a24.845,24.845,0,0,1-1.419-2.285c-.284-.5-.539-1.05-.809-1.6-1.888-3.9-3.96-8.9-5.677-12.659-.653-1.419-1.22-2.767-1.7-3.69a5.536,5.536,0,0,0-.752-1.263,18.621,18.621,0,0,0-3.222-2.029c-2.086-1.135-4.456-2.313-5.379-2.838a.17.17,0,0,1-.1-.241.185.185,0,0,1,.241-.1c1.121.4,4.258,1.419,6.7,2.384a13.852,13.852,0,0,1,2.838,1.419,16.066,16.066,0,0,1,2.654,4.57c1.831,4.1,4.172,10.176,6.032,14.6.525,1.221.951,2.342,1.419,3.236,0,.1.17.2.156.312h0a.767.767,0,0,0-.241.142.114.114,0,1,1-.2.114A3.575,3.575,0,0,0,164.135,219.132Z" transform="translate(-122.401 -177.593)" fill="#111b37" fill-rule="evenodd"/>
    <path id="Path_185" data-name="Path 185" d="M168.553,219.423a2.625,2.625,0,0,0,.156-.6.753.753,0,0,0,0-.241,41.156,41.156,0,0,0-2.186-6.7c-2.668-6.6-6.926-14.561-7.82-16.321a11.424,11.424,0,0,0-4.357-3.335,23.5,23.5,0,0,0-2.838-1.206,14.331,14.331,0,0,0-2.044-.483.355.355,0,0,0-.412.227.326.326,0,0,0,.227.4c.468.2.979.5,1.561.795l1.547.823c1.036.553,2.1,1.164,2.994,1.76a6.855,6.855,0,0,1,2.029,1.689c.582,1.15,2.484,4.953,4.556,9.253,1.348,2.838,2.725,5.79,3.917,8.387.908,2.015,1.5,3.874,2.157,5.067a4.031,4.031,0,0,0,.426.525.1.1,0,0,0,.114.071.085.085,0,0,0-.028-.114Z" transform="translate(-120.617 -178.224)" fill="#111b37" fill-rule="evenodd"/>
    <path id="Path_186" data-name="Path 186" d="M171.017,219.928a2,2,0,0,0,.241-.639,1.689,1.689,0,0,0,0-.582,61.02,61.02,0,0,0-2.838-9.934c-.752-2.171-1.618-4.371-2.469-6.429a60.812,60.812,0,0,0-4.584-9.409,3.959,3.959,0,0,0-1.547-1.079c-1.632-.71-4.158-1.15-6.088-2.1a.181.181,0,1,0-.2.284c1.774,1.178,4.258,1.987,5.762,2.838a3.207,3.207,0,0,1,1.05.781,60.127,60.127,0,0,1,3.42,7.664c.809,2.044,1.66,4.258,2.526,6.5s1.788,4.527,2.512,6.514c.639,1.774,1.107,3.349,1.419,4.513a2.84,2.84,0,0,0,.227.667,3.713,3.713,0,0,0,.341.426.113.113,0,0,0,.114.085.1.1,0,0,0,.113-.1Z" transform="translate(-118.78 -178.573)" fill="#111b37" fill-rule="evenodd"/>
  </g>
  <path id="Path_188" data-name="Path 188" d="M62.629,44.807a58.257,58.257,0,0,0,.454,17.754s-8.771-4.47-8.359,6.94c.3,8.373,8.827,13.567,11.921,9.154,0,0,3.747,12.957,9.608,14.873l.937,8.387s3.009,13.4,16.7,16.094c0,0,12.56-3.406,15.611-18.634l.085-11.453a29.548,29.548,0,0,0,7.976-14.078s3.832,4.187,8.657-7.422c4.5-10.828-4.7-15.7-8.416-7.593a39.439,39.439,0,0,0-3.08-24.963C108.965,22.227,66.29,22.426,62.629,44.807Z" transform="translate(22.968 -8.408)" fill="#feb1a6" fill-rule="evenodd"/>
  <g id="Group_65" data-name="Group 65" transform="translate(77.678 17.823)" clip-path="url(#clip-path-3)">
    <path id="Path_189" data-name="Path 189" d="M66.5,75.317S77.541,80.029,87.873,79.7c10.062-.326,22.579-13.653,22.579-13.653S102.036,85.848,88.923,87C76.477,88.033,66.5,75.317,66.5,75.317Z" transform="translate(-49.768 -9.54)" fill="#111b37" fill-rule="evenodd"/>
  </g>
  <path id="Path_191" data-name="Path 191" d="M80.167,52.792c.5,1.632,1.419,8.941.809,10.885-.738,2.384-5.223,1.916-5.961,1.7-3.037-.894-3.236-2.242-3.236-3.264,0-2.015,4-9.4,4.627-10.275S79.358,50.138,80.167,52.792Z" transform="translate(30.123 1.97)" fill="#ec8273" fill-rule="evenodd"/>
  <ellipse id="Ellipse_19" data-name="Ellipse 19" cx="2.413" cy="3.222" rx="2.413" ry="3.222" transform="translate(94.236 49.685) rotate(-3.34)" fill="#111b37"/>
  <ellipse id="Ellipse_20" data-name="Ellipse 20" cx="2.427" cy="2.994" rx="2.427" ry="2.994" transform="translate(118.552 46.529) rotate(-3.44)" fill="#111b37"/>
  <path id="Path_192" data-name="Path 192" d="M86.542,41.741A3.591,3.591,0,0,0,83.7,43.075a.724.724,0,0,0,0,.667c.128.255.383.582.795.3a5.535,5.535,0,0,1,2.143-.752c1.419-.085,2.271,1.291,2.994.539,0,0,.255-.61-.5-1.206a3.931,3.931,0,0,0-2.6-.88Z" transform="translate(35.087 -1.908)" fill="#111b37" fill-rule="evenodd"/>
  <path id="Path_193" data-name="Path 193" d="M68.366,44.572a3.576,3.576,0,0,1,3.08.525.681.681,0,0,1,.156.639.5.5,0,0,1-.681.511,5.421,5.421,0,0,0-2.271-.156c-1.419.326-1.831,1.859-2.725,1.334a1.061,1.061,0,0,1,.142-1.306,3.945,3.945,0,0,1,2.3-1.547Z" transform="translate(27.605 -0.78)" fill="#111b37" fill-rule="evenodd"/>
  <path id="Path_194" data-name="Path 194" d="M111.73,42.776S104.194,53.505,86.568,47.9c0,0-9.211,11.07-27.5,3.52,0,0-17.47-12.276,1.419-30.782s25.162,6.514,39.042-.4,22.906,5.989,21.955,11.254c0,0,14.107,7.1,3.434,28.682,0,0-4.045-.752-5.9,4.683l-.185,3.122S107.018,60.644,111.73,42.776Z" transform="translate(21.707 -13.673)" fill="#111b37" fill-rule="evenodd"/>
  <path id="Path_195" data-name="Path 195" d="M58.332,38.39l3.761,3.591c-.7,5.421.937,16.42.937,16.42-1.15-1.731-4.655-1.7-4.655-1.7C52.954,42.648,58.332,38.39,58.332,38.39Z" transform="translate(23.489 -3.312)" fill="#111b37" fill-rule="evenodd"/>
  <path id="Path_196" data-name="Path 196" d="M82.962,66.1a4.258,4.258,0,0,1-2.625,3.065,5.946,5.946,0,0,1-3.42-.227A4.854,4.854,0,0,1,74.8,65.586c-.184-.724-.5-.852-.866-.809a1.05,1.05,0,0,0-.766.965,4.8,4.8,0,0,0,.383,1.419A6.088,6.088,0,0,0,75.881,70.1a6.486,6.486,0,0,0,4.768.639c3.548-.993,4.045-4.854,3.747-6.656-.128-.7-.781-.454-.937-.369a.681.681,0,0,0-.3.383v.766Z" transform="translate(30.706 7.257)" fill="#111b37" fill-rule="evenodd"/>
  <path id="Path_197" data-name="Path 197" d="M56.09,56.232h.156c.071,0,.341-.341.539-.5a1.334,1.334,0,0,1,1.15-.355,3.6,3.6,0,0,1,1.689,1.249,9.324,9.324,0,0,1,1.859,2.994c.369.852.639,1.746.937,2.6s.71,1.845.951,2.682a.142.142,0,1,0,.27,0,17.314,17.314,0,0,0-.128-2.909A12.773,12.773,0,0,0,63,60.106a11.112,11.112,0,0,0-2.5-4.258,4.385,4.385,0,0,0-2.441-1.334,2.086,2.086,0,0,0-1.831.7,2.171,2.171,0,0,0-.4.639c0,.085-.114.184,0,.284l.114.1a.1.1,0,0,0,0,.114S56.09,56.289,56.09,56.232Z" transform="translate(23.418 3.441)" fill="#111b37" fill-rule="evenodd"/>
  <path id="Path_198" data-name="Path 198" d="M61.174,57.755a1.845,1.845,0,0,0-1.817-1.235,2.271,2.271,0,0,0-1.746,1.533,4.059,4.059,0,0,0-.142,2.285,5.932,5.932,0,0,0,.908,2,.173.173,0,1,0,.27-.2,6.188,6.188,0,0,1-.582-1.93,3.6,3.6,0,0,1,.241-1.845,1.675,1.675,0,0,1,1.093-1.15,1.419,1.419,0,0,1,1.533.653.1.1,0,0,0,.17-.114Z" transform="translate(24.082 4.288)" fill="#111b37" fill-rule="evenodd"/>
  <path id="Path_199" data-name="Path 199" d="M107.061,51.9a.469.469,0,0,0,.1-.184.624.624,0,0,0,0-.213,2.626,2.626,0,0,0-.4-.766,2.356,2.356,0,0,0-2.086-1.107,4.258,4.258,0,0,0-2.838,1.9,11.439,11.439,0,0,0-1.93,4.726,13.653,13.653,0,0,0-.2,2,23.33,23.33,0,0,0,.184,2.98.114.114,0,0,0,.1.1.1.1,0,0,0,.1-.1c.114-.979.27-1.93.426-2.838a22.013,22.013,0,0,1,.624-2.838,10.161,10.161,0,0,1,1.689-3.278,4.087,4.087,0,0,1,1.589-1.32,1.49,1.49,0,0,1,1.7.284c.241.184.355.44.582.639s0,0,.156,0a.1.1,0,0,0,.128.071A.128.128,0,0,0,107.061,51.9Z" transform="translate(41.831 1.399)" fill="#111b37" fill-rule="evenodd"/>
  <path id="Path_200" data-name="Path 200" d="M100.13,55.519h0v-.284a2.838,2.838,0,0,1,1.689-2.2,3.193,3.193,0,0,1,1.888-.241,2.838,2.838,0,0,1,1.135.525.2.2,0,0,1,.085.284.213.213,0,0,1-.284.085,3.094,3.094,0,0,0-1.022-.17,3.775,3.775,0,0,0-1.419.241,2.484,2.484,0,0,0-1.547,1.575c0,.071,0,.17,0,.227s0,0-.114,0a.114.114,0,0,1-.114.085.089.089,0,0,1-.085-.1C100.343,55.448,100.116,55.505,100.13,55.519Z" transform="translate(42.007 2.706)" fill="#111b37" fill-rule="evenodd"/>
  <circle id="Ellipse_21" data-name="Ellipse 21" cx="5.535" cy="5.535" r="5.535" transform="translate(89.57 58.282)" fill="#fca69a"/>
  <circle id="Ellipse_22" data-name="Ellipse 22" cx="5.535" cy="5.535" r="5.535" transform="translate(122.254 55.444)" fill="#fca69a"/>
</svg>
