<svg id="right-arrow" xmlns="http://www.w3.org/2000/svg" width="15.668" height="14.727" viewBox="0 0 15.668 14.727">
  <g id="Group_49" data-name="Group 49">
    <path id="Path_133" data-name="Path 133" d="M15.418,48.022,9.759,41.629a.792.792,0,0,0-1.213,0l-.514.581a1.029,1.029,0,0,0-.25.685,1.05,1.05,0,0,0,.25.693l3.3,3.738H.846A.9.9,0,0,0,0,48.278V49.1a.936.936,0,0,0,.846.995H11.371L8.033,53.852a1.049,1.049,0,0,0,0,1.36l.514.579a.792.792,0,0,0,1.213,0L15.418,49.4a1.069,1.069,0,0,0,0-1.375Z" transform="translate(0 -41.346)" fill="#fff"/>
  </g>
</svg>
