<svg xmlns="http://www.w3.org/2000/svg" width="66.125" height="63.084" viewBox="0 0 66.125 63.084">
  <g id="star-rating" transform="translate(0 -11.427)">
    <path id="Path_295" data-name="Path 295" d="M279.851,34.017l-20.427-2.968-9.135-18.51a1.973,1.973,0,0,0-1.789-1.112l0,53.246,18.267,9.6a2,2,0,0,0,2.9-2.1l-3.488-20.346,14.78-14.408a2,2,0,0,0-1.106-3.4Z" transform="translate(-215.437 0)" fill="#ffb820"/>
    <path id="Path_296" data-name="Path 296" d="M46.45,50.435l3.161,18.426c-.011,0-16.292-4.124-16.546-4.188,0,0-18.273,9.6-18.273,9.6a2,2,0,0,1-2.9-2.1l3.489-20.346L.606,37.42a2,2,0,0,1,1.106-3.4l20.427-2.968,9.135-18.51a1.973,1.973,0,0,1,1.789-1.112L41.337,34.7l18.5,2.689Z" transform="translate(0 0)" fill="#ffd06a"/>
  </g>
</svg>
