<svg id="responsive-design" xmlns="http://www.w3.org/2000/svg" width="59.473" height="54.943" viewBox="0 0 59.473 54.943">
  <path id="Path_65" data-name="Path 65" d="M32.085,150.908H10.52a3.02,3.02,0,0,1-3.02-3.02V107H35.105v40.888A3.02,3.02,0,0,1,32.085,150.908Z" transform="translate(-6.629 -96.836)" fill="#eef5f6"/>
  <path id="Path_66" data-name="Path 66" d="M192.174,107v40.888a3.02,3.02,0,0,1-3.02,3.02h3.485a3.02,3.02,0,0,0,3.02-3.02V107Z" transform="translate(-167.182 -96.836)" fill="#deecf1"/>
  <path id="Path_67" data-name="Path 67" d="M35.105,36.293H7.5V30.02A3.02,3.02,0,0,1,10.52,27H32.085a3.02,3.02,0,0,1,3.02,3.02Z" transform="translate(-6.629 -26.129)" fill="#918282"/>
  <path id="Path_68" data-name="Path 68" d="M192.639,27h-3.485a3.02,3.02,0,0,1,3.02,3.02v6.273h3.485V30.02A3.02,3.02,0,0,0,192.639,27Z" transform="translate(-167.182 -26.129)" fill="#7a6d79"/>
  <circle id="Ellipse_4" data-name="Ellipse 4" cx="1.859" cy="1.859" r="1.859" transform="translate(4.575 3.621)" fill="#fe646f"/>
  <circle id="Ellipse_5" data-name="Ellipse 5" cx="1.859" cy="1.859" r="1.859" transform="translate(11.389 3.621)" fill="#ffd15b"/>
  <circle id="Ellipse_6" data-name="Ellipse 6" cx="1.859" cy="1.859" r="1.859" transform="translate(18.204 3.621)" fill="#8379c1"/>
  <path id="Path_69" data-name="Path 69" d="M305.958,125H286.3a3.02,3.02,0,0,1-3.02-3.02V107h25.7v14.984A3.02,3.02,0,0,1,305.958,125Z" transform="translate(-250.376 -96.836)" fill="#eef5f6"/>
  <path id="Path_70" data-name="Path 70" d="M451.52,107v14.984A3.02,3.02,0,0,1,448.5,125h3.485a3.02,3.02,0,0,0,3.02-3.02V107Z" transform="translate(-396.403 -96.836)" fill="#deecf1"/>
  <path id="Path_71" data-name="Path 71" d="M308.978,36.293h-25.7V30.02A3.02,3.02,0,0,1,286.3,27h19.656a3.02,3.02,0,0,1,3.02,3.02Z" transform="translate(-250.376 -26.129)" fill="#fe646f"/>
  <path id="Path_72" data-name="Path 72" d="M451.985,27H448.5a3.02,3.02,0,0,1,3.02,3.02v6.273H455V30.02A3.02,3.02,0,0,0,451.985,27Z" transform="translate(-396.403 -26.129)" fill="#fd4755"/>
  <circle id="Ellipse_7" data-name="Ellipse 7" cx="1.859" cy="1.859" r="1.859" transform="translate(36.609 3.621)" fill="#ffd15b"/>
  <path id="Path_73" data-name="Path 73" d="M305.958,386.894H286.3a3.02,3.02,0,0,1-3.02-3.02V374h25.7v9.873A3.02,3.02,0,0,1,305.958,386.894Z" transform="translate(-250.376 -332.822)" fill="#eef5f6"/>
  <path id="Path_74" data-name="Path 74" d="M451.52,374v9.873a3.02,3.02,0,0,1-3.02,3.02h3.485a3.02,3.02,0,0,0,3.02-3.02V374Z" transform="translate(-396.403 -332.822)" fill="#deecf1"/>
  <path id="Path_75" data-name="Path 75" d="M308.978,303.293h-25.7V297.02A3.02,3.02,0,0,1,286.3,294h19.656a3.02,3.02,0,0,1,3.02,3.02Z" transform="translate(-250.376 -262.115)" fill="#8379c1"/>
  <path id="Path_76" data-name="Path 76" d="M451.985,294H448.5a3.02,3.02,0,0,1,3.02,3.02v6.273H455V297.02A3.02,3.02,0,0,0,451.985,294Z" transform="translate(-396.403 -262.115)" fill="#6e61b6"/>
  <circle id="Ellipse_8" data-name="Ellipse 8" cx="1.859" cy="1.859" r="1.859" transform="translate(36.609 34.635)" fill="#fe646f"/>
  <path id="Path_77" data-name="Path 77" d="M85.181,393.872h-7.9a1.975,1.975,0,1,1,0-3.949h7.9a1.975,1.975,0,1,1,0,3.949Z" transform="translate(-66.56 -346.895)" fill="#fe646f"/>
  <path id="Path_78" data-name="Path 78" d="M133.793,389.923h-3.485a1.975,1.975,0,1,1,0,3.949h3.485a1.975,1.975,0,1,0,0-3.949Z" transform="translate(-115.172 -346.895)" fill="#fd4755"/>
  <g id="Group_42" data-name="Group 42" transform="translate(0 0)">
    <path id="Path_79" data-name="Path 79" d="M25.457,19.5H3.891A3.9,3.9,0,0,0,0,23.391V53.22a.871.871,0,0,0,1.742,0V30.535H27.606V70.552A2.151,2.151,0,0,1,25.457,72.7H3.891a2.151,2.151,0,0,1-2.149-2.149v-13.4a.871.871,0,1,0-1.742,0v13.4a3.9,3.9,0,0,0,3.891,3.891H25.457a3.9,3.9,0,0,0,3.891-3.891V23.391A3.9,3.9,0,0,0,25.457,19.5ZM1.742,28.793v-5.4a2.151,2.151,0,0,1,2.149-2.149H25.457a2.151,2.151,0,0,1,2.149,2.149v5.4Z" transform="translate(0 -19.5)"/>
    <path id="Path_80" data-name="Path 80" d="M34.615,43.172a2.73,2.73,0,1,0,2.73,2.73A2.733,2.733,0,0,0,34.615,43.172Zm0,3.717A.987.987,0,1,1,35.6,45.9.988.988,0,0,1,34.615,46.889Z" transform="translate(-28.181 -40.422)"/>
    <path id="Path_81" data-name="Path 81" d="M93.281,43.172a2.73,2.73,0,1,0,2.73,2.73A2.733,2.733,0,0,0,93.281,43.172Zm0,3.717a.987.987,0,1,1,.987-.987A.988.988,0,0,1,93.281,46.889Z" transform="translate(-80.033 -40.422)"/>
    <path id="Path_82" data-name="Path 82" d="M151.948,43.172a2.73,2.73,0,1,0,2.73,2.73A2.733,2.733,0,0,0,151.948,43.172Zm0,3.717a.987.987,0,1,1,.987-.987A.988.988,0,0,1,151.948,46.889Z" transform="translate(-131.885 -40.422)"/>
    <path id="Path_83" data-name="Path 83" d="M299.329,19.5H296.6a.871.871,0,0,0,0,1.742h2.726a2.151,2.151,0,0,1,2.149,2.149v5.4H277.524v-5.4a2.151,2.151,0,0,1,2.149-2.149H292.5a.871.871,0,1,0,0-1.742H279.673a3.9,3.9,0,0,0-3.891,3.891V44.648a3.9,3.9,0,0,0,3.891,3.891h19.656a3.9,3.9,0,0,0,3.891-3.891V23.391A3.9,3.9,0,0,0,299.329,19.5Zm2.149,25.148a2.151,2.151,0,0,1-2.149,2.149H279.673a2.151,2.151,0,0,1-2.149-2.149V30.535h23.954Z" transform="translate(-243.748 -19.5)"/>
    <path id="Path_84" data-name="Path 84" d="M307.667,45.9a2.73,2.73,0,1,0,2.73-2.73A2.733,2.733,0,0,0,307.667,45.9Zm3.717,0a.987.987,0,1,1-.987-.987A.988.988,0,0,1,311.384,45.9Z" transform="translate(-271.929 -40.422)"/>
    <path id="Path_85" data-name="Path 85" d="M299.329,286.5H279.673a3.9,3.9,0,0,0-3.891,3.891v16.146a3.9,3.9,0,0,0,3.891,3.891h19.656a3.9,3.9,0,0,0,3.891-3.891V290.391A3.9,3.9,0,0,0,299.329,286.5Zm-21.805,3.891a2.151,2.151,0,0,1,2.149-2.149h19.656a2.151,2.151,0,0,1,2.149,2.149v5.4H277.524Zm23.954,16.146a2.151,2.151,0,0,1-2.149,2.149H279.673a2.151,2.151,0,0,1-2.149-2.149v-9h23.954Z" transform="translate(-243.748 -255.486)"/>
    <path id="Path_86" data-name="Path 86" d="M310.4,310.172a2.73,2.73,0,1,0,2.73,2.73A2.733,2.733,0,0,0,310.4,310.172Zm0,3.717a.987.987,0,1,1,.987-.987A.988.988,0,0,1,310.4,313.889Z" transform="translate(-271.929 -276.408)"/>
    <path id="Path_87" data-name="Path 87" d="M52.43,169.742h7.3a.871.871,0,0,0,0-1.742h-7.3A.871.871,0,0,0,52.43,169.742Z" transform="translate(-45.577 -150.75)"/>
    <path id="Path_88" data-name="Path 88" d="M52.431,207.742H68A.871.871,0,1,0,68,206H52.431A.871.871,0,0,0,52.431,207.742Z" transform="translate(-45.577 -184.336)"/>
    <path id="Path_89" data-name="Path 89" d="M52.431,245.742H68A.871.871,0,1,0,68,244H52.431A.871.871,0,0,0,52.431,245.742Z" transform="translate(-45.577 -217.922)"/>
    <path id="Path_90" data-name="Path 90" d="M52.431,283.742H68A.871.871,0,1,0,68,282H52.431A.871.871,0,0,0,52.431,283.742Z" transform="translate(-45.577 -251.508)"/>
    <path id="Path_91" data-name="Path 91" d="M320.43,150.742h7.3a.871.871,0,0,0,0-1.742h-7.3A.871.871,0,0,0,320.43,150.742Z" transform="translate(-282.446 -133.957)"/>
    <path id="Path_92" data-name="Path 92" d="M320.431,188.742H336A.871.871,0,1,0,336,187H320.431A.871.871,0,0,0,320.431,188.742Z" transform="translate(-282.447 -167.543)"/>
    <path id="Path_93" data-name="Path 93" d="M70.8,382.423a2.846,2.846,0,0,0,0,5.692h7.9a2.846,2.846,0,0,0,0-5.692Zm9,2.846a1.1,1.1,0,0,1-1.1,1.1H70.8a1.1,1.1,0,0,1,0-2.207h7.9A1.1,1.1,0,0,1,79.8,385.269Z" transform="translate(-60.073 -340.266)"/>
    <path id="Path_94" data-name="Path 94" d="M326.871,407.742h4.646a.871.871,0,0,0,0-1.742h-4.646a.871.871,0,1,0,0,1.742Z" transform="translate(-288.132 -361.105)"/>
    <path id="Path_95" data-name="Path 95" d="M326.871,435.742h4.646a.871.871,0,0,0,0-1.742h-4.646a.871.871,0,1,0,0,1.742Z" transform="translate(-288.132 -385.852)"/>
    <path id="Path_96" data-name="Path 96" d="M406.871,407.742h4.646a.871.871,0,0,0,0-1.742h-4.646a.871.871,0,1,0,0,1.742Z" transform="translate(-358.84 -361.105)"/>
  </g>
</svg>
